<svg xmlns="http://www.w3.org/2000/svg" width="1024" height="1024" viewBox="0 0 1024 1024"><rect width="1024" height="1024" fill="none"/><g transform="translate(296 296)"><svg xmlns="http://www.w3.org/2000/svg" width="432" height="432" viewBox="0 0 24 24" fill="none" stroke="#20212b" stroke-width="1.7" stroke-linecap="round" stroke-linejoin="round" class="lucide lucide-wand-sparkles" aria-hidden="true"><path d="m21.64 3.64-1.28-1.28a1.21 1.21 0 0 0-1.72 0L2.36 18.64a1.21 1.21 0 0 0 0 1.72l1.28 1.28a1.2 1.2 0 0 0 1.72 0L21.64 5.36a1.2 1.2 0 0 0 0-1.72"></path><path d="m14 7 3 3"></path><path d="M5 6v4"></path><path d="M19 14v4"></path><path d="M10 2v2"></path><path d="M7 8H3"></path><path d="M21 16h-4"></path><path d="M11 3H9"></path></svg></g></svg>